/* XPM */
static char *Free_Converter_com_royalsrcchain128_69650124[] = {
/* columns rows colors chars-per-pixel */
"128 128 43 1 ",
"  c #FF9D0E",
". c #FFA116",
"X c #FFA41E",
"o c #FFA623",
"O c #FFA826",
"+ c #FFAA2C",
"@ c #FFAD33",
"# c #FFAF39",
"$ c #FFB13D",
"% c #FFB445",
"& c #FFB64B",
"* c #FFB84E",
"= c #FFB952",
"- c #FFBD5B",
"; c #FFBF60",
": c #FFC164",
"> c #FFC46C",
", c #FFC774",
"< c #FFC876",
"1 c #FFCA7C",
"2 c #FFCD83",
"3 c #FFCF88",
"4 c #FFD18D",
"5 c #FFD493",
"6 c #FFD69A",
"7 c #FFD89E",
"8 c #FFDBA4",
"9 c #FFDEAC",
"0 c #FFDFB1",
"q c #FFE1B4",
"w c #FFE4BB",
"e c #FFE7C3",
"r c #FFE8C6",
"t c #FFEACB",
"y c #FFEED4",
"u c #FFEFD8",
"i c #FFF1DC",
"p c #FFF4E3",
"a c #FFF6EA",
"s c #FFF8EE",
"d c #FFFAF4",
"f c #FFFFFF",
"g c None",
/* pixels */
"gggggggggggggggggggggggggggggggggggggggggggggggggggggggggggggggggggggggggggggggggggggggggggggggggggggggggggggggggggggggggggggggg",
"gggggggggggggggggggggggggggggggggggggggggggggggggggggggggggggggggggggggggggggggggggggggggggggggggggggggggggggggggggggggggggggggg",
"gggggggggggggggggggggggggggggggggggggggggggggggggggggggggggggggggggggggggggggggggggggggggggggggggggggggggggggggggggggggggggggggg",
"gggggggggggggggggggggggggggggggggggggggggggggggggggggggggggggggggggggggggggggggggggggggggggggggggggggggggggggggggggggggggggggggg",
"gggggggggggggggggggggggggggggggggggggggggggggggggggggggg++++++++++++++++gggggggggggggggggggggggggggggggggggggggggggggggggggggggg",
"ggggggggggggggggggggggggggggggggggggggggggggggggggg++++++++++++++++++++++++++ggggggggggggggggggggggggggggggggggggggggggggggggggg",
"ggggggggggggggggggggggggggggggggggggggggggggggg++++++++++++++++++++++++++++++++++ggggggggggggggggggggggggggggggggggggggggggggggg",
"gggggggggggggggggggggggggggggggggggggggggggg++++++++++++++++++++++++++++++++++++++++gggggggggggggggggggggggggggggggggggggggggggg",
"ggggggggggggggggggggggggggggggggggggggggg++++++++++++++++++++++++++++++++++++++++++++++ggggggggggggggggggggggggggggggggggggggggg",
"ggggggggggggggggggggggggggggggggggggggg+++++++++++++++++++OOoXooXoXoOOOO+++++++++++++++++ggggggggggggggggggggggggggggggggggggggg",
"ggggggggggggggggggggggggggggggggggggg+++++++++++++++OoXXX+@%*--:::--&%@+oXooO++++++++++++++ggggggggggggggggggggggggggggggggggggg",
"ggggggggggggggggggggggggggggggggggg++++++++++++++oXo@=,6qypsfffffffffsatq6,*@oXoO++++++++++++ggggggggggggggggggggggggggggggggggg",
"ggggggggggggggggggggggggggggggggg+++++++++++++oX+=3qpfffffffffffffffffffffffiw2*+XX++++++++++++ggggggggggggggggggggggggggggggggg",
"gggggggggggggggggggggggggggggggg+++++++++++OX+=6yfffffffffffffffffffffffffffffffy6=+XO++++++++++gggggggggggggggggggggggggggggggg",
"gggggggggggggggggggggggggggggg+++++++++++OX$3tffffffffffffffffffffffffffffffffffffft1$Xo++++++++++gggggggggggggggggggggggggggggg",
"ggggggggggggggggggggggggggggg++++++++++oo&8affffffffffffayw8621<<<1368wyaffffffffffffa7&XO+++++++++ggggggggggggggggggggggggggggg",
"ggggggggggggggggggggggggggg++++++++++oX&9dfffffffffsy7<=@+oXXoXoXoXXXoo+$=<7ydfffffffffs9&XO+++++++++ggggggggggggggggggggggggggg",
"gggggggggggggggggggggggggg++++++++++X$8dffffffffsq<%OXoo+++++++++++++++OOOoX+%10affffffffs7#X+++++++++gggggggggggggggggggggggggg",
"ggggggggggggggggggggggggg+++++++++o+2afffffffdw<#oXO+++++++++++++++++++++++++OXo$<effffffffa1Oo++++++++ggggggggggggggggggggggggg",
"gggggggggggggggggggggggg+++++++++X*rfffffffs8=OXO++++++++++++++@++++++++++++++++OoO=8sfffffffe&X++++++++gggggggggggggggggggggggg",
"ggggggggggggggggggggggg++++++++OO3sffffffs5$oo+++++++++++++++++++++++++++++++++++++oo$6sffffffs2oO+++++++ggggggggggggggggggggggg",
"gggggggggggggggggggggg++++++++o#wfffffff8%XO+++++++++++++++++++++++++++++@+++++++++++OX%8fffffffq@o+++++++gggggggggggggggggggggg",
"ggggggggggggggggggggg++++++++X=pffffffe=Xo+++++++++++++++++++++++++++++++++++++++++++++OX=rffffffi=X+++++++ggggggggggggggggggggg",
"gggggggggggggggggggg++++++++X,dfffffs1Oo+++++++++++++++++++++++++++++++++++++++++++++++++oO3dfffffs>X+++++++gggggggggggggggggggg",
"ggggggggggggggggggg++++++++X3ffffffr%X+++++++++++++++++++++++++++++++++++++++++++++++++++++X&tffffff2X+++++++ggggggggggggggggggg",
"gggggggggggggggggg+++++++OX6ffffff6+o+++++++++++++++++++++++++++++++++++++++++++++++++++++++o+7ffffff4X+++++++gggggggggggggggggg",
"ggggggggggggggggg++++++++X6fffffs<X++++++++++++++++++++++++++++++++++++++++++++++++++++++++++Oo<ffffff4o+++++++ggggggggggggggggg",
"gggggggggggggggg++++++++X5fffffa-X+++++++++++++++++++++++++++++++++++++++++++++++++++++++++++++o-afffff4X+++++++gggggggggggggggg",
"gggggggggggggggg+++++++X3fffffp%o+++++++++++++++++++++++++++++++++++++++++++++++++++++++++++++++X&pfffff2X++++++gggggggggggggggg",
"ggggggggggggggg+++++++X,fffffi%o+++++++++++++++++++++++++++++++++++++++++++++++++++++++++++++++++o%pfffff>X++++++ggggggggggggggg",
"gggggggggggggg+++++++X-dffffi%X+++++++++@+++++++++++++++++++++++++++++++++++++++++++++++++++++++++o%affffs=o++++++gggggggggggggg",
"gggggggggggggg++++++O#iffffa&o+++++++++++++++++++++++++++++++++++++++++++++++++++++++++++++++++++++X&affffu@O+++++gggggggggggggg",
"ggggggggggggg++++++OOwffffd-o++++++++++++++++++++++@+++++++++++@++@+++++++++++++++++++++++++++++++++o;dffffqO++++++ggggggggggggg",
"gggggggggggg+++++++X3fffff<X+++++++++++++++++++++++++++++++++++++++++++++++++++++++++++++++++++++++++X1fffff1X++++++gggggggggggg",
"gggggggggggg++++++o=dffff7X+++++++++++++++++++++++++++++++++++++++++++++++++++++++++++++++++++++++++++o8ffffd&o+++++gggggggggggg",
"ggggggggggg++++++OOtfffftOO+++++++++++++++++++++++++++++++++++++++++++++++++++++++++++++++++++++++++++O+yffffro++++++ggggggggggg",
"ggggggggggg++++++X2ffffa%O+++++++++++++++++++++++++++++++++++++++++++++++++++++++++++++++++++++++++++++o*sffff1X+++++ggggggggggg",
"gggggggggg++++++o%affff2X+++++++++++++++++++++++++++++++++++++++++++++++++++++++++++++++++++++++++++++++X3ffffa#O+++++gggggggggg",
"gggggggggg++++++X8ffffeOO++++++++++++++++++++++++++++++++++++++++++++++++++++++++++++++++++++++++++++++++Otffff7X+++++gggggggggg",
"ggggggggg++++++O*dfffd=o+++++++++++++++++++++@++++++++++++++++++++++++++++++++++++@++++++++++++++++++++++X-ffffd%O+++++ggggggggg",
"ggggggggg++++++o9ffff8X+++++++++++OXXoXoOoooXoXoooXXO+++OXXoooXoOoooXoXooXooXXoooXXX++++++++++++OoXXO+++++o9ffff8X+++++ggggggggg",
"gggggggg++++++o&ffffa%O++++++++OX+&<4888888888888889-o+O,988888888888888888888888889-O+++++++++o%483$o++++O%sfffd%O+++++gggggggg",
"gggggggg++++++X8ffff6X++++++++X$3yffffffffffffffffff3X+X9fffffffffffffffffffffffffff3X++++++++o:sfffa=o++++X8ffff7X+++++gggggggg",
"gggggggg++++++$sfffs$O++++++o+3affffffffffffffffffff3X+X9fffffffffffffffffffffffffff3o++++++++#sfffffi+++++O&sfffa#O++++gggggggg",
"ggggggg++++++X3ffff8X++++++o$effffffffffffffffffffff3X+X9fffffffffffffffffffffffffff3X+++++++o1fffffff:o++++X9ffff1X+++++ggggggg",
"ggggggg++++++Oyffff&o+++++o&pffffffarq99999999q9999q:o+O1q99999999999wffffw99999999q:o+++++++X3fffffff<X++++o=fffftO+++++ggggggg",
"ggggggg+++++o=ffffeO+++++O$pfffffw:@oXXooXoXXXXXXXXoO+++OXoXoXXooXXXX%fffs@XoXXooXXoO++++++++o:fffffff=O+++++Orffff*o++++ggggggg",
"gggggg++++++X6ffff<X+++++Orffffp:oXO++++++++++++++++++++++++++++++++o&fffd%O+++++++++++++++++o%sfffffqO++++++X1ffff4X+++++gggggg",
"gggggg+++++++yfffs#O++++X3ffffy$X+++++++++++++++++++++++++++++++++++o&fffd%OO++++++++++++++++X9ffffd9+O++++++O%sfffy+O++++gggggg",
"gggggg+++++o=ffffqo++++O$sfffp$o++++++++++++++++++++++++++++++++++++o=fffd%O++++++++++++++++O=ffffw$O+++++++++Owffff&O++++gggggg",
"gggggg+++++X3ffff<X++++X4ffff:X+++++++++++++++++++++++++++++++++++++o=fffd%O++++++++++++++++owfffd%X++++++++++X1ffff1o++++gggggg",
"ggggg++++++owfffd%O+++++yfffwX++++++++++++++++++++++++++++++++++++++o&fffd%O+++++++++++++++o:ffff7X+++++++++++o&dfff0X+++++ggggg",
"ggggg++++++@pfffyO++++o=ffff;X++++++++++++++++++++++++++++++++++++++O=fffd%O++++++++++++++O+yfffa#OO++++++++++++ufffi++++++ggggg",
"ggggg+++++o*ffff7o++++X1fffa@+++++++o++oO+++++++++++++++++++++++++++o*fffd%O++++++++++++++X1ffff3X+++++++++++++o9ffff&O++++ggggg",
"ggggg+++++X,ffff<o++++X6fffeO+++++O+6yi9&XOOoOOOOOO+++++++++++++++++o&fffd%O+++++++++++++O+pfffu+O+++++++++++++X1ffff>o++++ggggg",
"ggggg+++++X6ffff=o++++X8fff9X+++++@rffffa-%%&%&&%%@OXO++++++++++++++o=fffd%O+++++++++++++o4ffff,o++++++++++++++o-ffff4X++++ggggg",
"gggg++++++owfffs#O++++X9fff8X++++X3fffffffddsdddddpe6=OX++++++++++++o=fffd%OO+++++++++++O$afffto+++++++++++++++O%sfffqX+++++gggg",
"gggg+++++++tfffy++++++X9fff9X++++Oefffffffffffffffffffe:oO++++++++++o=dffd%O++++++++++++X7ffff;o+++++++++++++++++ifffeO+++++gggg",
"gggg++++++@pfffwo+++++X6fffeo++++orfffffffffffffffffffff9#o+++++++++o*fffd%O+++++++++++o&dfffwo+++++++++++++++++Oefffi@+++++gggg",
"gggg+++++O%sfff8o+++++X1fffp@++++o4ffffffffffffffffffffffi*X++++++++o*fffd%O+++++++++++o0fffd&o+++++++++++++++++o9fffs#O++++gggg",
"gggg+++++o&ffff5X+++++o=ffff;o++++@tffffs:%&&=&&&=,8afffffa*o+++++++o=fffd%O++++++++++O-ffff8X++++++++++++++++++X7ffff%O++++gggg",
"gggg+++++o-ffff3X+++++O+ufffwX++++O@7iaq=XOooOoOoOXX@3sffffp#o++++++o&fffd%O++++++++++Orfffs$O++++++++++++++++++X4ffff=o++++gggg",
"gggg+++++o;ffff1X++++++X4ffff:X++++Oo++oO+++++++++++OX%yffffwo++++++o=fffd%O+++++++++X>fffff>X++++++++++++++++++X3ffff-o++++gggg",
"gggg+++++X:ffff<o++++++O$sfffp#o++++++++++++++++++++++X@yffff>X+++++O&fffd%O++++++++O+ufffffp@++++++++++++++++++o1ffff-o++++gggg",
"gggg+++++X:ffff<o+++++++X4ffffy#X++++++++++++++OXoO++++o%afffy++++++o=fffd%O++++++++X2fffffff6X+++++++++++++++++X1ffff-o++++gggg",
"gggg+++++o:ffff,X+++++++++rffffp;XX++++++++++o@:3;+o++++X2ffff-X++++o*fffd%O+++++++O@afffffffd%o++++++++++++++++X2ffff-o++++gggg",
"gggg+++++o-ffff1o++++++++o%pfffffq;@oXXXXXXXX&yfffr%O+++O+ifff8X++++o=fffd%o+++++++X6ffff0ffffwo++++++++++++++++o3ffff=o++++gggg",
"gggg+++++o-ffff3X+++++++++o&pffffffaw99999998afffffrOO+++X6fffy+++++o*dffd%o++++++O%sfffeXeffff:X+++++++++++++++X4ffff=O++++gggg",
"gggg+++++o&ffff6X++++++++++o%effffffffffffffffffffff-oO++o;fffs$O+++o=fffd%O++++++X9ffff=.=dfffy+O++++++++++++++X7ffff%O++++gggg",
"gggg+++++O%sfff8X+++++++++++o+3sffffffffffffffffffff,X+++O&dfff*o+++o=fffd%O+++++o=dfffqo+X7ffff3X++++++++++++++o9fffa#O++++gggg",
"gggg++++++@pfffwo+++++++++++++X$4yffffffffffffffffff-o+++O$sfff-o+++o*fffd%O+++++owfffs&O+O+afffs%O+++++++++++++orfffi@+++++gggg",
"gggg+++++++tfffy++++++++++++++++o+=1689898998afffffrO++++O%dfff=o+++o*fffd%O++++o:ffff6X+++X,ffff9o++++++++++++++ifffrO+++++gggg",
"ggggg+++++oqfffa#O++++++++++++++++oXXooXoXXoX=ifffr%o++++O%dfff=o+++o=fffd%O+++OOtfffa#O++++Orffff-X+++++++++++O%sfffqX++++ggggg",
"ggggg+++++X6ffff=O+++++++++++++++++++++++++++o@>3:+O+++++o;fffs$O+++o&fffd%O+++o1ffff3X+++++o=dffftO+++++++++++O-ffff4X++++ggggg",
"ggggg+++++X,ffff1X++++++++++++++++++++++++++++OXXo+++++++X4fffy+++++o*fffd%o++O+pfffi++++++++X7ffff1X++++++++++X1ffff:X++++ggggg",
"ggggg+++++o*ffff8X++++++++++++++++++++++++++++++++++++++++ifff8o++++o*fffd%o++o4ffff,X+++++++O@pfffa#o+++++++++X9ffff&o++++ggggg",
"ggggg++++++@pfffy+++++++++++++++++++++++++++++++++++++++X1ffff;o++++o=fffd%O+o$sffftO+++++++++X<ffff8X++++++++++ufffi++++++ggggg",
"gggggg+++++Xwfffd%O++++++++++++++++++++++++++++++++++++o%afffy++++++o=dffs%O+X7ffff-X++++++++++Orffff&.O++++++O&ffffqo++++gggggg",
"gggggg+++++X2ffff1X+++++++++++++++++++++++++++++++++++o+rffff,X+++++o=fffd%oo%dfffwo+++++++++++O=ffffy,$o+++++X2ffff1X++++gggggg",
"gggggg+++++o&ffffqo++++++++++++++++++++++++++++++++++X%tffffwo++++++o&fffd%Oowfffd&o++++++++++++X7fffffa:o++++owffff&O++++gggggg",
"gggggg+++++++yfffs#oOOOOOOOOOOOOOOoOOOOOOOOOOOOOOOXX+1affffa$O++++++o=fffd% -ffff8X+++++++++++++O#afffffd%O++O%sfffr+O++++gggggg",
"ggggggg+++++X6ffff3$%%%&%%%%%&%%%&%%%&%%%%%&%%%%%*:8ifffffs=o+++++++O%sfff8;ufffa%O+++++++++++++O&sffffff4X++X2ffff4X++++ggggggg",
"ggggggg+++++o=fffffddddddddddddddddddddddddddddddffffffffp=o+++++++++oefffffffff4X++++++++++++++o-fffffff9X++Otffff&o++++ggggggg",
"ggggggg+++++++tfffffffffffffffffffffffffffffffffffffffffq#o++++++++++o-ffffffffu@+++++++++@++++++%fffffff3X+O=ffffrO+++++ggggggg",
"gggggggg+++++X2ffffffffffffffffffffffffffffffffffffffft>oO++++++++++++o1ffffffi%O++++++++++++++++o9fffffa#O+X9ffff1o++++gggggggg",
"gggggggg+++++O#sffffdddfdfdfdfdfdfdfdfdfdfdffddffdat6-+o+++++++++++++++o-waay4@o+++++++++++++++++O@qfffy=o+O&dfffa@O++++gggggggg",
"gggggggg++++++X8ffffq%***&*&&&*&*&*&&&*&&*****&=*%#OXo++++++++++++++++++oO@$+o++++++++++++++++++++Oo=<>+o++X8ffff6X+++++gggggggg",
"ggggggggg+++++O%dfffs#XOOoOOOOOOOoOOOOOOOOooOooOoo+++++++++++++++++++++++++O+O++++++++++++++++++++++OooO++O%dfffs%O++++ggggggggg",
"ggggggggg++++++X9ffff9o+++++++++++++++++++++++++++++++@+++++++++++++++++++++++++++++++++++++++++++++++++++X0ffff8X+++++ggggggggg",
"gggggggggg+++++O&dffff=o+++++@+++++++++++++++++++++++++++++++++++++++++++++++++++++++++++++++++++++++++++X-ffffs%O++++gggggggggg",
"gggggggggg++++++X8ffffrO++++++++++++++++++++++++++++++++++++++++++++++++++++++++++++++++++++++++++++++++++yffff6X+++++gggggggggg",
"ggggggggggg+++++O#affff3X+++++++++++++++++++++++++++++++++++++++++++++++++++++++++++++++++++++++++++++++X4ffffa@O++++ggggggggggg",
"ggggggggggg++++++X1ffffs&o+++++++++++++++++++++++++++++++++++++++++++++++++++++++++++++++++++++++++++++o=fffff<X+++++ggggggggggg",
"gggggggggggg++++++Orffffy+O+++++++++++++++++++++++++++++++++++++++++++++++++++++++++++++++++++++++++++++yffffeo+++++gggggggggggg",
"gggggggggggg++++++o&dffff8X+++++++++++++++++++++++++++++++++++++++++++++++++++++++++++++++++++++++++++X9ffffs%o+++++gggggggggggg",
"ggggggggggggg++++++X2fffff1X+++++++++++++++++++++++++++++++++++++++++++++++++++++++++++++++++++++++++X2fffff1X+++++ggggggggggggg",
"gggggggggggggg++++++owfffff-X+++++++++++++++++++++++++++++++++++++++++++++++++++++++++++++++++++++++X:fffffqo+++++gggggggggggggg",
"gggggggggggggg++++++O@iffffa&o+++++++++++++++++++++++++++++++++++++++++++++++++++++++++++++++++++++o=sffffy@O+++++gggggggggggggg",
"ggggggggggggggg++++++o=sffffp%o+++++++++++++++++++++++++++++++++++++++++++++++++++++++++++++++++++o&affffa&X+++++ggggggggggggggg",
"gggggggggggggggg++++++X>fffffa%X+++++++++++++++++++++++++++++++++@+++++++++++++++++++++++++++++++X&pfffff:X+++++gggggggggggggggg",
"gggggggggggggggg+++++++X2fffffa&X+++++++++++++++++++++++++++++++++++++++++++++++++++++++++++++++X=afffff1X++++++gggggggggggggggg",
"ggggggggggggggggg+++++++X4fffffa-X+++++++++++++++++++++++++++++++++++++++++++++++++++++++++++++X:sfffff3X++++++ggggggggggggggggg",
"gggggggggggggggggg++++++OX6ffffff1XO+++++++++++++++++++++++++++++++++++++++++++++++++++++++++OX2ffffff4X++++++gggggggggggggggggg",
"ggggggggggggggggggg+++++++o4ffffff8+o+++++++++++++++++++++++++++++++++++++++++++++++++++++++o+9ffffff3X++++++ggggggggggggggggggg",
"gggggggggggggggggggg++++++OX2fffffft*X+++++++++++++++++++++++++++++++++++++++++++++++++++++X=yffffff1X++++++gggggggggggggggggggg",
"ggggggggggggggggggggg+++++++X:sfffffd3+X+++++++++++++++++++++++++++++++++++++++++++++++++o+3dfffffa;X++++++ggggggggggggggggggggg",
"gggggggggggggggggggggg+++++++X=uffffffr-XO+++++++++++++++++++++++++++++++++++++++++++++Oo-tffffffu&o++++++gggggggggggggggggggggg",
"ggggggggggggggggggggggg+++++++o@qfffffff9%XO+++++++++++++++++++++++++++++++++++++++++OX&9fffffff9+o++++++ggggggggggggggggggggggg",
"gggggggggggggggggggggggg+++++++Oo1sffffffs8%Xo+++++++++++++++++++++++++++++++++++++oX%8dffffffa1oO++++++gggggggggggggggggggggggg",
"ggggggggggggggggggggggggg++++++++X&efffffffs9=OX++++++++++++++++++++++++++++++++OXO-9dfffffffw%X+++++++ggggggggggggggggggggggggg",
"gggggggggggggggggggggggggg++++++++oo1pffffffffr1%oXO+++++++++++++++++++++++++oXO%1rffffffffp<OO+++++++gggggggggggggggggggggggggg",
"ggggggggggggggggggggggggggg+++++++++X#7sffffffffsw1&+XXo++++++++++++++++OoXo+&2wsffffffffs5@X++++++++ggggggggggggggggggggggggggg",
"ggggggggggggggggggggggggggggg+++++++++X%8sfffffffffdy91-%+OoXXXoooXXXoO+%-29yffffffffffs7%XO+++++++ggggggggggggggggggggggggggggg",
"gggggggggggggggggggggggggggggg+++++++++oo%6affffffffffffsie97431113479eisffffffffffffa6%XO++++++++gggggggggggggggggggggggggggggg",
"gggggggggggggggggggggggggggggggg+++++++++OX#1rfffffffffffffffffffffffffffffffffffffr<@XO++++++++gggggggggggggggggggggggggggggggg",
"ggggggggggggggggggggggggggggggggg++++++++++OXO*4tffffffffffffffffffffffffffffffdr4&oXO+++++++++ggggggggggggggggggggggggggggggggg",
"ggggggggggggggggggggggggggggggggggg+++++++++++oX+&10ifffffffffffffffffffffffi01&+Xo++++++++++ggggggggggggggggggggggggggggggggggg",
"ggggggggggggggggggggggggggggggggggggg++++++++++++oXo+&>4qrisdffffffffairq4:%+oXo+++++++++++ggggggggggggggggggggggggggggggggggggg",
"ggggggggggggggggggggggggggggggggggggggg++++++++++++++oXXXO@$&*-----=%$@OXXXO+++++++++++++ggggggggggggggggggggggggggggggggggggggg",
"ggggggggggggggggggggggggggggggggggggggggg++++++++++++++++++OOooooooooOO++++++++++++++++ggggggggggggggggggggggggggggggggggggggggg",
"gggggggggggggggggggggggggggggggggggggggggggg++++++++++++++++++++++++++++++++++++++++gggggggggggggggggggggggggggggggggggggggggggg",
"ggggggggggggggggggggggggggggggggggggggggggggggg++++++++++++++++++++++++++++++++++ggggggggggggggggggggggggggggggggggggggggggggggg",
"ggggggggggggggggggggggggggggggggggggggggggggggggggg++++++++++++++++++++++++++ggggggggggggggggggggggggggggggggggggggggggggggggggg",
"gggggggggggggggggggggggggggggggggggggggggggggggggggggggg++++++++++++++++gggggggggggggggggggggggggggggggggggggggggggggggggggggggg",
"gggggggggggggggggggggggggggggggggggggggggggggggggggggggggggggggggggggggggggggggggggggggggggggggggggggggggggggggggggggggggggggggg",
"gggggggggggggggggggggggggggggggggggggggggggggggggggggggggggggggggggggggggggggggggggggggggggggggggggggggggggggggggggggggggggggggg",
"gggggggggggggggggggggggggggggggggggggggggggggggggggggggggggggggggggggggggggggggggggggggggggggggggggggggggggggggggggggggggggggggg",
"gggggggggggggggggggggggggggggggggggggggggggggggggggggggggggggggggggggggggggggggggggggggggggggggggggggggggggggggggggggggggggggggg"
};
