/* XPM */
static char *Free_Converter_com_royalsrcchain32_15680212[] = {
/* columns rows colors chars-per-pixel */
"32 32 252 2 ",
"   c #FF9D0D",
".  c #FF9E0D",
"X  c #FF9E0E",
"o  c #FF9E0F",
"O  c #FF9F0F",
"+  c #FF9E10",
"@  c #FF9F10",
"#  c #FF9F11",
"$  c #FF9F12",
"%  c #FFA014",
"&  c #FFA015",
"*  c #FFA115",
"=  c #FFA117",
"-  c #FFA217",
";  c #FFA219",
":  c #FFA31A",
">  c #FFA31B",
",  c #FFA31C",
"<  c #FFA41C",
"1  c #FFA41D",
"2  c #FFA41E",
"3  c #FFA51E",
"4  c #FFA41F",
"5  c #FFA51F",
"6  c #FFA520",
"7  c #FFA521",
"8  c #FFA620",
"9  c #FFA621",
"0  c #FFA622",
"q  c #FFA623",
"w  c #FFA723",
"e  c #FFA624",
"r  c #FFA724",
"t  c #FFA725",
"y  c #FFA726",
"u  c #FFA825",
"i  c #FFA826",
"p  c #FFA827",
"a  c #FFA828",
"s  c #FFA928",
"d  c #FFA829",
"f  c #FFA929",
"g  c #FFA92A",
"h  c #FFA92B",
"j  c #FFAA2A",
"k  c #FFAA2B",
"l  c #FFAA2C",
"z  c #FFAA2D",
"x  c #FFAB2E",
"c  c #FFAB2F",
"v  c #FFAB30",
"b  c #FFAC30",
"n  c #FFAC31",
"m  c #FFAC32",
"M  c #FFAC33",
"N  c #FFAD33",
"B  c #FFAE34",
"V  c #FFAE35",
"C  c #FFAE36",
"Z  c #FFAE37",
"A  c #FFAF38",
"S  c #FFAF39",
"D  c #FFB03A",
"F  c #FFB13C",
"G  c #FFB13E",
"H  c #FFB23E",
"J  c #FFB240",
"K  c #FFB241",
"L  c #FFB443",
"P  c #FFB445",
"I  c #FFB446",
"U  c #FFB546",
"Y  c #FFB547",
"T  c #FFB548",
"R  c #FFB549",
"E  c #FFB648",
"W  c #FFB649",
"Q  c #FFB64B",
"!  c #FFB74B",
"~  c #FFB74C",
"^  c #FFB74D",
"/  c #FFB84F",
"(  c #FFB850",
")  c #FFB950",
"_  c #FFB951",
"`  c #FFBA53",
"'  c #FFBB56",
"]  c #FFBB57",
"[  c #FFBB58",
"{  c #FFBC58",
"}  c #FFBC59",
"|  c #FFBC5A",
" . c #FFBD5A",
".. c #FFBD5B",
"X. c #FFBD5C",
"o. c #FFBE5E",
"O. c #FFBF61",
"+. c #FFBF62",
"@. c #FFC061",
"#. c #FFC062",
"$. c #FFC164",
"%. c #FFC166",
"&. c #FFC167",
"*. c #FFC268",
"=. c #FFC269",
"-. c #FFC36A",
";. c #FFC36B",
":. c #FFC46C",
">. c #FFC56F",
",. c #FFC570",
"<. c #FFC571",
"1. c #FFC670",
"2. c #FFC671",
"3. c #FFC672",
"4. c #FFC772",
"5. c #FFC773",
"6. c #FFC774",
"7. c #FFC775",
"8. c #FFC978",
"9. c #FFC979",
"0. c #FFCA79",
"q. c #FFC97A",
"w. c #FFCA7A",
"e. c #FFCA7B",
"r. c #FFCA7C",
"t. c #FFCB7E",
"y. c #FFCB7F",
"u. c #FFCC7F",
"i. c #FFCC80",
"p. c #FFCC81",
"a. c #FFCD81",
"s. c #FFCD82",
"d. c #FFCD83",
"f. c #FFCD84",
"g. c #FFCE86",
"h. c #FFCF87",
"j. c #FFCF88",
"k. c #FFD08A",
"l. c #FFD08B",
"z. c #FFD18B",
"x. c #FFD18C",
"c. c #FFD18D",
"v. c #FFD494",
"b. c #FFD495",
"n. c #FFD595",
"m. c #FFD496",
"M. c #FFD596",
"N. c #FFD597",
"B. c #FFD697",
"V. c #FFD598",
"C. c #FFD698",
"Z. c #FFD69A",
"A. c #FFD79A",
"S. c #FFD69B",
"D. c #FFD79B",
"F. c #FFD79C",
"G. c #FFD79D",
"H. c #FFD89C",
"J. c #FFD89D",
"K. c #FFD8A0",
"L. c #FFD9A1",
"P. c #FFDAA2",
"I. c #FFDAA3",
"U. c #FFDAA4",
"Y. c #FFDBA4",
"T. c #FFDBA5",
"R. c #FFDBA6",
"E. c #FFDBA7",
"W. c #FFDCA8",
"Q. c #FFDDA8",
"!. c #FFDCA9",
"~. c #FFDDA9",
"^. c #FFDDAA",
"/. c #FFDDAB",
"(. c #FFDEAA",
"). c #FFDDAC",
"_. c #FFDEAC",
"`. c NavajoWhite",
"'. c #FFDEAE",
"]. c #FFDFAE",
"[. c #FFDFAF",
"{. c #FFDFB0",
"}. c #FFE0B2",
"|. c #FFE1B4",
" X c #FFE2B5",
".X c #FFE1B6",
"XX c #FFE2B6",
"oX c #FFE2B8",
"OX c #FFE3B9",
"+X c #FFE3BA",
"@X c #FFE4BC",
"#X c #FFE5BE",
"$X c #FFE6C2",
"%X c #FFE7C2",
"&X c #FFE6C3",
"*X c #FFE7C4",
"=X c #FFE8C6",
"-X c #FFE9C7",
";X c #FFE9C8",
":X c #FFE9C9",
">X c #FFEACA",
",X c #FFEACC",
"<X c BlanchedAlmond",
"1X c #FFEBCE",
"2X c #FFEDD1",
"3X c #FFECD2",
"4X c #FFEDD2",
"5X c #FFEED3",
"6X c #FFEDD4",
"7X c #FFEED4",
"8X c #FFEED5",
"9X c #FFEED6",
"0X c #FFEFD7",
"qX c #FFEFD8",
"wX c #FFF0D9",
"eX c #FFF0DB",
"rX c #FFF1DC",
"tX c #FFF1DD",
"yX c #FFF2DE",
"uX c #FFF2DF",
"iX c #FFF2E0",
"pX c #FFF3E1",
"aX c #FFF3E2",
"sX c #FFF3E3",
"dX c #FFF4E2",
"fX c #FFF4E3",
"gX c #FFF4E4",
"hX c #FFF5E5",
"jX c #FFF5E6",
"kX c #FFF5E7",
"lX c #FFF6E8",
"zX c #FFF6E9",
"xX c #FFF7EB",
"cX c #FFF8ED",
"vX c #FFF8EE",
"bX c #FFF8EF",
"nX c #FFF9F0",
"mX c #FFFAF3",
"MX c #FFFAF4",
"NX c #FFFBF4",
"BX c #FFFBF6",
"VX c #FFFCF6",
"CX c #FFFCF7",
"ZX c #FFFCF8",
"AX c #FFFCF9",
"SX c #FFFDF9",
"DX c #FFFDFA",
"FX c #FFFDFB",
"GX c #FFFEFC",
"HX c #FFFEFE",
"JX c gray100",
"KX c None",
/* pixels */
"KXKXKXKXKXKXKXKXKXKXKXKXKXKXKXKXKXKXKXKXKXKXKXKXKXKXKXKXKXKXKXKX",
"KXKXKXKXKXKXKXKXKXKXKXKXj t 7 , 7 7 t j KXKXKXKXKXKXKXKXKXKXKXKX",
"KXKXKXKXKXKXKXKXKXl t 1 j I O.4.6.%.^ m 1 7 l KXKXKXKXKXKXKXKXKX",
"KXKXKXKXKXKXKXKXt 7 T Z.9XvXsX9X9XtXvXtX]. .7 7 KXKXKXKXKXKXKXKX",
"KXKXKXKXKXKXl 7 V E.nX>Xi.^ V l j n I 4.OXbX*X^ , l KXKXKXKXKXKX",
"KXKXKXKXKXl 1  .sX,X .7 , t j j j j t 1 , I .XnXt.1 j KXKXKXKXKX",
"KXKXKXKXl 1 =.AXZ.t 7 l l l l l l l l l l t , 4.MXb.1 j KXKXKXKX",
"KXKXKXKX7  .AXd.; j l l l l l l l l l l l l j ,  .CXk.1 KXKXKXKX",
"KXKXKXi V zXZ.; l l l l j l l j l j l j j l l j ; =.AX .7 KXKXKX",
"KXKXl 1 W.9Xt 7 1 7 7 7 7 j 7 t 7 7 7 7 7 j l j , * Y.9Xj j KXKX",
"KXKXt T MXX.* J F.OXOXOX}.L H.OXOX}.}.OX.XJ t J E.' l vX7.1 KXKX",
"KXKX1 H.,X; _ gX@Xk.k.x.h.G 9.x.d.qX9Xd.j.D ; :.JXZ.O Z.,Xt KXKX",
"KXj j 9Xu., 3Xb.* + ; ; ; j i 1 O E.F.+ 1 j 1 ].OXn 1 _ nXI t KX",
"KXi I vXI T dXn V d._ J G t 7 c 1 ^.E.1 c 7  .zXJ 7 j m tX4.7 KX",
"KX7 @.sXl _ tX7 9.JXnXdXgX%X_ 7 1 ^.E.1 j 7 %XZ.1 l l 7 %Xb.1 KX",
"KX7 4.9Xj m sX=.i 9.T V D Z.gXT ; ^.E.1 1 %.JXT 7 l l 1 .X].1 KX",
"KX7 7.3Xl 1 7.vXd.I T 9.d.; ^.{.+ ^.E.; j >XvXE.1 l l 1 .X].1 KX",
"KX7 %.tXn j 7 =.-X0X9XJXJXn @.,X, ^.E.O t.9XT zX .7 l 7 @XH.7 KX",
"KXi / vXI i l 7 i n n _ X.* t.-X* ^.L.7 sX:.+ b.3X7 i j 9X9.1 KX",
"KXj c sX:.% 1 1 1 : ; % % D tXd.+ ].b.h.,Xt t l wXb.i L vX_ t KX",
"KXKX1 ^.wXF.E.E.Y.E.E.L.^.dX^.i 1 k.gXzX .7 l ; F.JXO.9.wXj KXKX",
"KXKX7 ' JX@XL.^.^.^.^.^.E.%.7 j j n x.:.t l j j _ b.G qXx.1 KXKX",
"KXKXj t *X^.+ 1 7 1 1 1 1 7 j l l j 1 7 j l l l i O d.zXV j KXKX",
"KXKXKX7 T CX6.; l l l l l l l l l l l l l l l l 1 I MX9., KXKXKX",
"KXKXKXKX1 u.AX .1 j l l l l l l l l l l l l l 1 S dX{.7 KXKXKXKX",
"KXKXKXKXl 1 b.NX%.1 i l l l l l l l l l l j 1 T sX%Xt j KXKXKXKX",
"KXKXKXKXKXj 1 f.AXL.V ; t j l l l j j t , j d.vX].j t KXKXKXKXKX",
"KXKXKXKXKXKXj 1 ' 3XzXZ./ l 7 7 1 7 j I f.qXgX6., t KXKXKXKXKXKX",
"KXKXKXKXKXKXKXKX7 j 4.>XbXqX%X.X.X@X9XvX9Xk.V 1 KXKXKXKXKXKXKXKX",
"KXKXKXKXKXKXKXKXKXj 1 t I 4.b.].].F.9._ j 1 i KXKXKXKXKXKXKXKXKX",
"KXKXKXKXKXKXKXKXKXKXKXKXt 7 1 1 1 1 1 i KXKXKXKXKXKXKXKXKXKXKXKX",
"KXKXKXKXKXKXKXKXKXKXKXKXKXKXKXKXKXKXKXKXKXKXKXKXKXKXKXKXKXKXKXKX"
};
