/* XPM */
static char *Free_Converter_com_royalsrcchain16_87150229[] = {
/* columns rows colors chars-per-pixel */
"16 16 110 2 ",
"   c #FF9F10",
".  c #FFA218",
"X  c #FFA21A",
"o  c #FFA31B",
"O  c #FFA31C",
"+  c #FFA41D",
"@  c #FFA520",
"#  c #FFA521",
"$  c #FFA621",
"%  c #FFA622",
"&  c #FFA623",
"*  c #FFA624",
"=  c #FFA724",
"-  c #FFA725",
";  c #FFA726",
":  c #FFA826",
">  c #FFA827",
",  c #FFA828",
"<  c #FFA929",
"1  c #FFA92A",
"2  c #FFAA2C",
"3  c #FFAB2F",
"4  c #FFAC32",
"5  c #FFAD32",
"6  c #FFAD33",
"7  c #FFAE37",
"8  c #FFB13E",
"9  c #FFB23F",
"0  c #FFB240",
"q  c #FFB341",
"w  c #FFB342",
"e  c #FFB444",
"r  c #FFB445",
"t  c #FFB549",
"y  c #FFB649",
"u  c #FFB74C",
"i  c #FFB74D",
"p  c #FFB84F",
"a  c #FFB950",
"s  c #FFB952",
"d  c #FFBA53",
"f  c #FFBA54",
"g  c #FFBB55",
"h  c #FFBC58",
"j  c #FFBC59",
"k  c #FFBD5A",
"l  c #FFBD5B",
"z  c #FFBD5C",
"x  c #FFBE5C",
"c  c #FFBE5D",
"v  c #FFBE5E",
"b  c #FFBE5F",
"n  c #FFBF60",
"m  c #FFBF62",
"M  c #FFC062",
"N  c #FFC064",
"B  c #FFC164",
"V  c #FFC165",
"C  c #FFC266",
"Z  c #FFC267",
"A  c #FFC268",
"S  c #FFC269",
"D  c #FFC369",
"F  c #FFC46C",
"G  c #FFC46D",
"H  c #FFC46E",
"J  c #FFC56E",
"K  c #FFC570",
"L  c #FFC672",
"P  c #FFC673",
"I  c #FFC773",
"U  c #FFC674",
"Y  c #FFC774",
"T  c #FFC776",
"R  c #FFC876",
"E  c #FFC878",
"W  c #FFCA7B",
"Q  c #FFCA7C",
"!  c #FFCA7D",
"~  c #FFCB7E",
"^  c #FFCB7F",
"/  c #FFCC7F",
"(  c #FFCB80",
")  c #FFCC81",
"_  c #FFCD83",
"`  c #FFCE84",
"'  c #FFCE85",
"]  c #FFCE86",
"[  c #FFCF88",
"{  c #FFCF89",
"}  c #FFCF8A",
"|  c #FFD08B",
" . c #FFD08C",
".. c #FFD18C",
"X. c #FFD28E",
"o. c #FFD290",
"O. c #FFD291",
"+. c #FFD392",
"@. c #FFD496",
"#. c #FFD596",
"$. c #FFD597",
"%. c #FFD697",
"&. c #FFD598",
"*. c #FFD699",
"=. c #FFD69B",
"-. c #FFD79B",
";. c #FFD79D",
":. c NavajoWhite",
">. c #FFDFB0",
",. c None",
/* pixels */
",.,.,.,.,.,.,.,.,.,.,.,.,.,.,.,.",
",.,.,.,.,.> y n n i 1 ,.,.,.,.,.",
",.,.,.,.d &...R T [ =.n ,.,.,.,.",
",.,.,.G &.8 % % % % 7 O.W ,.,.,.",
",.,.g &.O % 1 1 * 1 * X [ N ,.,.",
",.> #.p ( [ N I &.&.e g G #.4 ,.",
",.y [ ( N g q * ) G % #.e Q h ,.",
",.n I ) G +.X.x A d h `   A I ,.",
",.N H r [ ..R ) Q j &.&.+ N T ,.",
",.y O.2 q d x ` I :.h A W R x ,.",
",.* :.&.` [ ` q 8 ) , 6 / &.4 ,.",
",.,.x X.X * = > 1 % 1 X Q I ,.,.",
",.,.,.Q O.4 % > % % 2 ` [ ,.,.,.",
",.,.,.,.N =.) N N Q =.G ,.,.,.,.",
",.,.,.,.,.3 g I R x 4 ,.,.,.,.,.",
",.,.,.,.,.,.,.,.,.,.,.,.,.,.,.,."
};
