/* XPM */
static char *Free_Converter_com_royalsrcchain64_17680152[] = {
/* columns rows colors chars-per-pixel */
"64 64 40 1 ",
"  c #FFA014",
". c #FFA41E",
"X c #FFA623",
"o c #FFA827",
"O c #FFAA2C",
"+ c #FFAD32",
"@ c #FFAF39",
"# c #FFB13D",
"$ c #FFB343",
"% c #FFB74C",
"& c #FFB84E",
"* c #FFBA53",
"= c #FFBD5C",
"- c #FFBF61",
"; c #FFC164",
": c #FFC36A",
"> c #FFC773",
", c #FFC876",
"< c #FFCA7B",
"1 c #FFCD83",
"2 c #FFD18D",
"3 c #FFD393",
"4 c #FFD69B",
"5 c #FFD89E",
"6 c #FFDBA4",
"7 c #FFDDAC",
"8 c #FFDFB1",
"9 c #FFE1B4",
"0 c #FFE4BC",
"q c #FFE6C3",
"w c #FFE8C6",
"e c #FFEBCD",
"r c #FFEED4",
"t c #FFF1DC",
"y c #FFF4E4",
"u c #FFF7EB",
"i c #FFF8EE",
"p c #FFFAF4",
"a c #FFFFFE",
"s c None",
/* pixels */
"ssssssssssssssssssssssssssssssssssssssssssssssssssssssssssssssss",
"ssssssssssssssssssssssssssssssssssssssssssssssssssssssssssssssss",
"sssssssssssssssssssssssssssOOOOOOOOOOsssssssssssssssssssssssssss",
"sssssssssssssssssssssssOOOOOOOOOOOOOOOOOOsssssssssssssssssssssss",
"ssssssssssssssssssssOOOOOOoX..X....XXooOoOOOssssssssssssssssssss",
"ssssssssssssssssssOOOOoo.o#=<3677751:&+..oOOOOssssssssssssssssss",
"ssssssssssssssssOOOooXo*3wiaaaaaaaaaaat7>#.oOOOOssssssssssssssss",
"sssssssssssssssOO+oX+<eaaaaaye0999wtiaaaau6&XXOOOsssssssssssssss",
"sssssssssssssOOOoXO1yaaat6>&@ooooooO#=2wpaaa9&.oOOOsssssssssssss",
"ssssssssssssOOOo.=eaaa9;+X.ooOoOoOOooX.o$2taap4OXOOOssssssssssss",
"sssssssssssOOOoo4aaa7&.XoOOOOOOOOOOOOOOOo.+<yaae*.OOOsssssssssss",
"ssssssssssOOOX@waar=.XoOOOOOOOOOOOOOOOOOoOo.+5aai,XOOOssssssssss",
"sssssssssOOOX$raa5+.OOOOOOOOOOOOO+OOOOOOOOO+o.=yaa2.oOOsssssssss",
"ssssssssOOOX$yap<XoOOOOOOOOOOOOOOOOOOOOOOOOOOO.#eaa3.oOOssssssss",
"ssssssssOOo@rap:.oOOOOOOOOOOOOOOOOOOOOOOOOOOOOOoOqaa1.OOssssssss",
"sssssssOOoowap:.OOOOOOO+OOOOOOOOOOOOOOO+OOOOOOOOooqaa;XOOsssssss",
"ssssssOOo.4aa<.OOOOOOOOOOOOOOOOOOOOOOOOO+OOOOOOOOo+rau$ooOssssss",
"ssssssOOX-aa6.OOOOOOOOOOOOOOOOOOOOOOOOOOOOOOOOOOOOX&ia9oOOssssss",
"sssssO+oOrarOoOOOoOOOoOOOOOOOoOOOOOOOOoOOOOOO+OOOOo.<aa>.OOsssss",
"sssssOO.1aa=XoOOOoXXXXXXXXoOoXXXXX.XXoXXXXoOOOOOoXOoXqat+oOsssss",
"ssssOOo+ya8.OOoXO&;:::::::#o=:::::::::::::@oOOOo&-+oX*aa1.OOssss",
"ssssOO.1aa&XOoo,eaaaaaaaaa=.raaaaaaaaaaaaa=XOOo:pa0Oo.8ar+oOssss",
"ssssOooea9XOoO8aapreeeeeee&X7eeeeeraareere&oOoo0aaa*oo*aa:.Ossss",
"sssOOo*aa-Xoo9ap2$OOOoOoooOOOOoOoX$ap#oOooOOOO.6aay@oooea9XOOsss",
"sssOO.3ay+oX,ap-.ooOoOOoOOOOOOoOoo$ap#oooOOOOo+ta0%oOO.1ai@oosss",
"sssOooea6.oora3.oOOoOoOOOOOOOOOOoo$pp$oOOOOOOX3ato.+OOo&aa-XOsss",
"ssOOo#ia>.o&ap#oOoO+XoooooOOOOOOOo$ap#oOOOOOo$ia,.OOOOoOra3XOOss",
"ssOOX=aa%XX:aroOo=et>@$$$+XXOOOOOo$ap$oOOOOO.6aeooOOOOoX7a9oOOss",
"ssOO.<au+o.:aeoooeaaappppy9-XoOOOo$ap$oOOOOX&aa-XOOOOOO.3arOOOss",
"ssO+.3aeOOX=ay+oOeaaaapaaaaa7OoOOo$ap#oOOOOX9a9XOOOOOOOX>au@oOss",
"ssOO.6a0oOo#ia=.o=et,#$$$=6aa0OoOo$pp$oOOOX-ap&XOOOOOOO.-ap$oOss",
"ssOOX7a9XoOX7aeooX++Xoo....-ia3.Oo%pp#oOOooeaa:XOOOOOOOX=aa%oOss",
"ssOOX7a9XOOo$ia9+...XX.$*oo.<ai#oX$pp#oOO.,aaat+oOOOOO+X*aa$XOss",
"ssOO.7a9XOOOX:pau5:::-1ia7ooora,Xo%pp$oOo+ra7ya3.oOOOOOX=aa%ooss",
"ssOO.5awoOOOOX=eaaaaaaaaaa&X.6a5.X$ap#oO.1ayo<ai$oOOOOoX:ai#oOss",
"ssOoX1ar+oOOoOX+>7weeetaai#o.3a7.X%pp$oo@ua1.oea9XOOOOO.1ay+oOss",
"ssOOX-ap#oOOOOOOXXoooX@48=ooX6a5.o%pp#oX5arooX=aa;XOOOO.5aeoOOss",
"ssO+X&aa=XOOOOOOoOOoOOoXXoOoora,XX$ap$.%pa:XOO.7aeooOOOoqa6.OOss",
"sssOo+ta2XOOOOOOOOOOOOOOOoO.,ai#oX%pp# 8awoOOOo#ia1 oOo@ia<.Osss",
"sssOoX8aqXXoooooooooXooooX.=ia3XOX$apO*pa*XOOOo.1ap6#oX;aa&oOsss",
"sssOO.,ap=#$$$$$#$$$$$$##*6aaqooOo#ap-wa8.oO+OOo#iaa7X.7aeoOOsss",
"ssssOo#uappppippppppppppaaaa7+o+OOXqaaap%XOOOOOo$aaaeX+ua2.Ossss",
"ssssOO.6aappppapapapppappu9;XoOOOOX#qie-oOOOOOOOo5pi: 1ap$oOssss",
"ssssOOo&aa3@%$$$$$$$%$$%$+oXoOOOOOOoo#OXOOOOOOOOOo&$XOya9XoOssss",
"sssssOOX9atOXoooXoooXXooooOOOO+OOOOOOoOOOO+OOOOOOOoo.2ap&oOsssss",
"sssssOOX%pa5.OOOOOOOOOOOOOOOOOOOOOOOOOOOOOOOOOOOOOOX%ia7XOOsssss",
"ssssssOOX4ap-.OOOOOOOOOOOOOOOOOOOOOOOOOOOOOOOOOOOOooqai#oossssss",
"ssssssOOo+ray@XOOOOOOOOOOOOOOOOOO+OOOOOOOOOOOOOOOo.3aa,.OOssssss",
"sssssssOOX&paeOoOOOOOOOOOOOOOOOOOOOOOOOOOOOOOOOOO.<aa7XOOsssssss",
"ssssssssOO.,aa0OXOOOOOOOOOOOOOOOOOOOOOOOOOOOOOOo.:aaeOoossssssss",
"ssssssssOOo.2aaq+XOOOOO+OOOOOOOOOOOOOOOOOOOOO+o.,aar@o+Ossssssss",
"sssssssssOOO.3aar%.oOOOOOOOOOOOOOOOOO+OOOOOOOXo3aar$XOOsssssssss",
"ssssssssssOOoX1aai<oooOOOOOOOOOOOOOOOOOOOOOo.$0aae@XOossssssssss",
"sssssssssssOOo.;yaaq&.ooOOOOOOOOOO+OOOOOOoX+2iaa7Oo+Osssssssssss",
"ssssssssssssOOo.#9aaa9*oXoooOOOOOoOOOOo..@1taay,.oOOssssssssssss",
"sssssssssssssOOOoo:taaae1&OXX.XXXXX..o@;7uaaa7#.oOOsssssssssssss",
"sssssssssssssssOOOX+1raaaar92>-===;15qiaaap7&XoOOsssssssssssssss",
"ssssssssssssssssOOOo.O;8uaaaaaaaaaaaaaaae2$XooOOssssssssssssssss",
"ssssssssssssssssssOOOoXX+;39ripaaaiyw6<%oXoOOOssssssssssssssssss",
"ssssssssssssssssssssOOOOoX.XO@$%%$#+o..XoOOOssssssssssssssssssss",
"sssssssssssssssssssssssOoOOOoooooooOoOOOOsssssssssssssssssssssss",
"sssssssssssssssssssssssssssOOOOOOOOOOsssssssssssssssssssssssssss",
"ssssssssssssssssssssssssssssssssssssssssssssssssssssssssssssssss",
"ssssssssssssssssssssssssssssssssssssssssssssssssssssssssssssssss"
};
